HIERARCHY
ROOT Hips
{
	OFFSET 0.000000 100.481300 0.000000
	CHANNELS 6 Xposition Yposition Zposition Xrotation Yrotation Zrotation
	JOINT Spine
	{
		OFFSET -0.279200 12.230698 -2.892100
		CHANNELS 3 Xrotation Yrotation Zrotation
		JOINT Spine1
		{
			OFFSET -0.325700 14.269203 -3.374200
			CHANNELS 3 Xrotation Yrotation Zrotation
			JOINT Spine2
			{
				OFFSET -0.372300 16.307602 -0.352600
				CHANNELS 3 Xrotation Yrotation Zrotation
				JOINT Neck
				{
					OFFSET -0.418800 17.814194 8.416900
					CHANNELS 3 Xrotation Yrotation Zrotation
					JOINT Head
					{
						OFFSET 0.000000 7.031097 3.806800
						CHANNELS 3 Xrotation Yrotation Zrotation
						JOINT HeadTop_End
						{
							OFFSET 0.000000 24.646606 12.978600
							CHANNELS 3 Xrotation Yrotation Zrotation
							End Site
							{
								OFFSET 0.000000 27.854965 0.000000
							}
						}
					}
				}
				JOINT LeftShoulder
				{
					OFFSET 16.952999 14.495407 -7.737500
					CHANNELS 3 Xrotation Yrotation Zrotation
					JOINT LeftArm
					{
						OFFSET 9.308998 -2.777710 0.208600
						CHANNELS 3 Xrotation Yrotation Zrotation
						JOINT LeftForeArm
						{
							OFFSET 29.972298 0.000000 0.000000
							CHANNELS 3 Xrotation Yrotation Zrotation
							JOINT LeftHand
							{
								OFFSET 26.026505 0.000000 0.000000
								CHANNELS 3 Xrotation Yrotation Zrotation
								JOINT LeftHandThumb1
								{
									OFFSET 12.240501 -7.147949 9.207150
									CHANNELS 3 Xrotation Yrotation Zrotation
									JOINT LeftHandThumb2
									{
										OFFSET 4.138618 -2.389435 2.389433
										CHANNELS 3 Xrotation Yrotation Zrotation
										JOINT LeftHandThumb3
										{
											OFFSET 2.726913 -1.574387 1.574386
											CHANNELS 3 Xrotation Yrotation Zrotation
											JOINT LeftHandThumb4
											{
												OFFSET 3.941010 -2.275345 2.275342
												CHANNELS 3 Xrotation Yrotation Zrotation
												End Site
												{
													OFFSET -0.005798 5.087799 0.009903
												}
											}
										}
									}
								}
								JOINT LeftHandIndex1
								{
									OFFSET 24.424698 -1.985611 5.953459
									CHANNELS 3 Xrotation Yrotation Zrotation
									JOINT LeftHandIndex2
									{
										OFFSET 6.426697 0.000000 0.000000
										CHANNELS 3 Xrotation Yrotation Zrotation
										JOINT LeftHandIndex3
										{
											OFFSET 5.337898 0.000000 0.000000
											CHANNELS 3 Xrotation Yrotation Zrotation
											JOINT LeftHandIndex4
											{
												OFFSET 4.409401 0.000000 0.000000
												CHANNELS 3 Xrotation Yrotation Zrotation
												End Site
												{
													OFFSET 0.000000 4.409363 0.014373
												}
											}
										}
									}
								}
								JOINT LeftHandMiddle1
								{
									OFFSET 23.810104 0.000000 0.000000
									CHANNELS 3 Xrotation Yrotation Zrotation
									JOINT LeftHandMiddle2
									{
										OFFSET 7.176498 0.000000 0.000000
										CHANNELS 3 Xrotation Yrotation Zrotation
										JOINT LeftHandMiddle3
										{
											OFFSET 6.774902 0.000000 0.000000
											CHANNELS 3 Xrotation Yrotation Zrotation
											JOINT LeftHandMiddle4
											{
												OFFSET 5.403328 0.000000 0.000000
												CHANNELS 3 Xrotation Yrotation Zrotation
												End Site
												{
													OFFSET -0.027702 5.403244 0.017414
												}
											}
										}
									}
								}
								JOINT LeftHandRing1
								{
									OFFSET 22.908401 -0.839279 -6.020567
									CHANNELS 3 Xrotation Yrotation Zrotation
									JOINT LeftHandRing2
									{
										OFFSET 6.337502 0.000000 0.000000
										CHANNELS 3 Xrotation Yrotation Zrotation
										JOINT LeftHandRing3
										{
											OFFSET 5.779297 0.000000 0.000000
											CHANNELS 3 Xrotation Yrotation Zrotation
											JOINT LeftHandRing4
											{
												OFFSET 4.965698 0.000000 0.000000
												CHANNELS 3 Xrotation Yrotation Zrotation
												End Site
												{
													OFFSET 0.000000 4.965668 0.016186
												}
											}
										}
									}
								}
								JOINT LeftHandPinky1
								{
									OFFSET 20.037003 -1.530319 -10.950146
									CHANNELS 3 Xrotation Yrotation Zrotation
									JOINT LeftHandPinky2
									{
										OFFSET 5.254700 0.000000 0.000000
										CHANNELS 3 Xrotation Yrotation Zrotation
										JOINT LeftHandPinky3
										{
											OFFSET 4.810204 0.000000 0.000000
											CHANNELS 3 Xrotation Yrotation Zrotation
											JOINT LeftHandPinky4
											{
												OFFSET 3.647202 0.000000 0.000000
												CHANNELS 3 Xrotation Yrotation Zrotation
												End Site
												{
													OFFSET 0.000000 3.647186 0.011889
												}
											}
										}
									}
								}
							}
						}
					}
				}
				JOINT RightShoulder
				{
					OFFSET -15.141001 14.495407 -7.737500
					CHANNELS 3 Xrotation Yrotation Zrotation
					JOINT RightArm
					{
						OFFSET -9.308998 -2.777710 0.208500
						CHANNELS 3 Xrotation Yrotation Zrotation
						JOINT RightForeArm
						{
							OFFSET -29.972300 0.000000 0.000000
							CHANNELS 3 Xrotation Yrotation Zrotation
							JOINT RightHand
							{
								OFFSET -26.026505 0.000000 0.000000
								CHANNELS 3 Xrotation Yrotation Zrotation
								JOINT RightHandThumb1
								{
									OFFSET -12.240601 -7.148026 9.207092
									CHANNELS 3 Xrotation Yrotation Zrotation
									JOINT RightHandThumb2
									{
										OFFSET -4.138618 -2.389435 2.389433
										CHANNELS 3 Xrotation Yrotation Zrotation
										JOINT RightHandThumb3
										{
											OFFSET -2.726974 -1.574417 1.574421
											CHANNELS 3 Xrotation Yrotation Zrotation
											JOINT RightHandThumb4
											{
												OFFSET -3.941010 -2.275345 2.275343
												CHANNELS 3 Xrotation Yrotation Zrotation
												End Site
												{
													OFFSET 0.005814 5.087799 0.009927
												}
											}
										}
									}
								}
								JOINT RightHandIndex1
								{
									OFFSET -24.424698 -1.985657 5.953444
									CHANNELS 3 Xrotation Yrotation Zrotation
									JOINT RightHandIndex2
									{
										OFFSET -6.426697 0.000000 0.000000
										CHANNELS 3 Xrotation Yrotation Zrotation
										JOINT RightHandIndex3
										{
											OFFSET -5.337898 0.000000 0.000000
											CHANNELS 3 Xrotation Yrotation Zrotation
											JOINT RightHandIndex4
											{
												OFFSET -4.409401 0.000000 0.000000
												CHANNELS 3 Xrotation Yrotation Zrotation
												End Site
												{
													OFFSET 0.000000 4.409363 0.014408
												}
											}
										}
									}
								}
								JOINT RightHandMiddle1
								{
									OFFSET -23.810097 0.000000 0.000000
									CHANNELS 3 Xrotation Yrotation Zrotation
									JOINT RightHandMiddle2
									{
										OFFSET -7.176498 0.000000 0.000000
										CHANNELS 3 Xrotation Yrotation Zrotation
										JOINT RightHandMiddle3
										{
											OFFSET -6.774902 0.000000 0.000000
											CHANNELS 3 Xrotation Yrotation Zrotation
											JOINT RightHandMiddle4
											{
												OFFSET -5.403328 0.000000 0.000000
												CHANNELS 3 Xrotation Yrotation Zrotation
												End Site
												{
													OFFSET 0.027702 5.403244 0.017457
												}
											}
										}
									}
								}
								JOINT RightHandRing1
								{
									OFFSET -22.908302 -0.839325 -6.020576
									CHANNELS 3 Xrotation Yrotation Zrotation
									JOINT RightHandRing2
									{
										OFFSET -6.337502 0.000000 0.000000
										CHANNELS 3 Xrotation Yrotation Zrotation
										JOINT RightHandRing3
										{
											OFFSET -5.779297 0.000000 0.000000
											CHANNELS 3 Xrotation Yrotation Zrotation
											JOINT RightHandRing4
											{
												OFFSET -4.965698 0.000000 0.000000
												CHANNELS 3 Xrotation Yrotation Zrotation
												End Site
												{
													OFFSET 0.000000 4.965668 0.016226
												}
											}
										}
									}
								}
								JOINT RightHandPinky1
								{
									OFFSET -20.037003 -1.530334 -10.950259
									CHANNELS 3 Xrotation Yrotation Zrotation
									JOINT RightHandPinky2
									{
										OFFSET -5.254700 0.000000 0.000000
										CHANNELS 3 Xrotation Yrotation Zrotation
										JOINT RightHandPinky3
										{
											OFFSET -4.810204 0.000000 0.000000
											CHANNELS 3 Xrotation Yrotation Zrotation
											JOINT RightHandPinky4
											{
												OFFSET -3.647202 0.000000 0.000000
												CHANNELS 3 Xrotation Yrotation Zrotation
												End Site
												{
													OFFSET 0.000000 3.647186 0.011917
												}
											}
										}
									}
								}
							}
						}
					}
				}
			}
		}
	}
	JOINT LeftUpLeg
	{
		OFFSET 15.427100 -6.655098 0.678600
		CHANNELS 3 Xrotation Yrotation Zrotation
		JOINT LeftLeg
		{
			OFFSET 4.081073 -39.591068 13.024000
			CHANNELS 3 Xrotation Yrotation Zrotation
			JOINT LeftFoot
			{
				OFFSET -4.081074 -37.707932 -15.979700
				CHANNELS 3 Xrotation Yrotation Zrotation
				JOINT LeftToeBase
				{
					OFFSET 5.346399 -15.068900 20.645000
					CHANNELS 3 Xrotation Yrotation Zrotation
					JOINT LeftToe_End
					{
						OFFSET 2.754700 0.931300 11.300900
						CHANNELS 3 Xrotation Yrotation Zrotation
						End Site
						{
							OFFSET 0.000000 11.669021 0.000000
						}
					}
				}
			}
		}
	}
	JOINT RightUpLeg
	{
		OFFSET -15.569500 -6.655098 0.678600
		CHANNELS 3 Xrotation Yrotation Zrotation
		JOINT RightLeg
		{
			OFFSET -4.081825 -39.591045 13.023800
			CHANNELS 3 Xrotation Yrotation Zrotation
			JOINT RightFoot
			{
				OFFSET 4.081824 -37.707954 -15.979600
				CHANNELS 3 Xrotation Yrotation Zrotation
				JOINT RightToeBase
				{
					OFFSET -5.346400 -15.068900 20.645000
					CHANNELS 3 Xrotation Yrotation Zrotation
					JOINT RightToe_End
					{
						OFFSET -2.754700 0.931300 11.300900
						CHANNELS 3 Xrotation Yrotation Zrotation
						End Site
						{
							OFFSET 0.000000 11.669021 0.000000
						}
					}
				}
			}
		}
	}
}
MOTION
Frames: 4
Frame Time: 0.033333
0.633391 84.277878 2.027051 0.808555 -30.206843 0.266115 8.192686 15.430850 -5.099774 2.976730 5.912616 -1.450920 2.941940 5.928571 -1.455699 7.215518 -1.550249 0.204965 12.759207 -3.754584 3.663058 0.000000 0.000000 -0.000000 0.397026 1.981662 -3.891280 -11.124030 -29.155383 -48.615777 0.000016 -119.545454 0.000036 -3.341767 -18.465544 11.983905 4.891682 7.994771 1.884011 10.475091 36.544347 -16.206444 18.107195 67.043211 3.186289 -0.000001 0.000001 -0.000000 7.775675 6.956312 -86.152694 10.250114 6.003566 -119.372077 9.029914 6.538646 -108.236423 0.000000 0.000002 0.000001 6.554756 6.873497 -87.274313 9.404168 6.404064 -111.556011 9.208622 6.477427 -109.813056 0.000002 -0.000001 -0.000003 3.127859 6.869484 -89.819631 9.007623 6.545903 -108.040745 8.561884 6.673739 -104.169927 0.000001 0.000001 -0.000000 1.160377 7.315408 -94.148400 8.017693 2.700470 -99.510699 10.792526 5.665879 -124.703955 -0.000001 -0.000002 -0.000001 1.752094 6.414896 -0.561496 -39.272765 10.442911 63.256124 -0.000036 116.022866 0.000038 -20.245719 23.800329 -13.117891 2.101976 -10.083016 3.633755 25.660794 -30.716686 6.844858 36.126301 -53.497853 18.680847 0.000004 0.000003 0.000001 9.556171 -7.137703 86.157932 10.350207 -6.061988 119.375560 9.118079 -6.602324 108.238855 -0.000000 -0.000003 -0.000006 6.610155 -6.940051 87.289428 9.494166 -6.467128 111.542604 9.295809 -6.532966 109.815338 0.000001 0.000001 0.000001 1.946419 -7.142804 92.181155 8.379091 -6.800017 101.912344 8.643644 -6.731596 104.171648 -0.000001 0.000000 -0.000001 -2.850692 -7.674970 94.127499 8.100967 -6.852419 99.572663 10.897918 -5.720984 124.707766 0.000003 0.000001 -0.000002 -39.362305 -5.187950 5.859641 33.140542 -2.531699 2.179264 5.395077 -0.319565 -10.087048 -0.000008 0.000007 -0.000000 0.000000 0.000002 0.000000 11.997434 -18.923806 -9.127159 24.356743 -4.513135 0.646120 -33.661768 -7.019792 15.402423 -0.775149 0.000010 0.000000 -0.000000 -0.000000 -0.000000 
1.277920 84.221062 1.779073 1.454617 -36.156539 1.305349 8.199087 16.774924 -5.405327 2.934764 6.480448 -1.350963 2.880058 6.503453 -1.355833 6.801256 -1.271959 -0.090197 12.742830 -2.480774 2.155803 0.000001 0.000000 -0.000000 0.408747 2.014446 -4.169262 -7.950256 -28.145965 -42.699764 -0.000008 -120.388354 -0.000002 0.673144 -15.455258 11.414342 4.891684 7.994770 1.884007 10.475086 36.544350 -16.206444 18.107204 67.043211 3.186295 -0.000001 -0.000004 -0.000002 7.775676 6.956312 -86.152694 10.250116 6.003566 -119.372063 9.029912 6.538643 -108.236416 -0.000000 0.000000 -0.000000 6.554756 6.873495 -87.274306 9.404161 6.404063 -111.556018 9.208625 6.477422 -109.813063 -0.000000 0.000003 0.000001 3.127857 6.869489 -89.819631 9.007628 6.545902 -108.040738 8.561887 6.673739 -104.169933 -0.000001 0.000001 0.000000 1.160380 7.315408 -94.148400 8.017691 2.700470 -99.510706 10.792528 5.665875 -124.703955 0.000000 -0.000001 -0.000000 1.683784 5.996221 -0.316815 -40.372476 10.477301 66.002147 0.000009 123.059532 -0.000035 -20.348798 23.877629 -13.368446 2.101977 -10.083018 3.633756 25.660794 -30.716686 6.844860 36.126305 -53.497856 18.680839 -0.000001 0.000001 0.000001 9.556176 -7.137707 86.157932 10.350209 -6.061988 119.375560 9.118079 -6.602323 108.238868 0.000001 0.000000 -0.000002 6.610155 -6.940052 87.289428 9.494163 -6.467127 111.542610 9.295809 -6.532965 109.815338 0.000001 0.000001 0.000003 1.946420 -7.142809 92.181155 8.379091 -6.800016 101.912344 8.643643 -6.731595 104.171655 -0.000001 0.000001 -0.000001 -2.850690 -7.674973 94.127493 8.100969 -6.852418 99.572663 10.897919 -5.720983 124.707780 -0.000002 0.000002 -0.000001 -38.840550 -1.321464 9.126270 33.811441 -1.055741 1.348794 4.164157 -0.062487 -9.885803 -0.000054 -0.000005 0.000001 -0.000000 -0.000000 0.000000 6.813584 -17.094714 -12.236062 27.165870 -0.637166 0.646724 -33.423572 -6.141515 13.953119 -0.746640 0.000002 -0.000002 0.000000 -0.000002 0.000000 
1.865617 84.762306 1.760448 3.015915 -44.911424 2.899244 7.917545 17.561893 -6.100211 2.764694 6.855882 -1.526034 2.698429 6.880132 -1.532690 6.001375 -0.567698 -0.516514 11.903649 0.985117 -1.299966 0.000001 0.000001 -0.000000 0.334000 2.700513 -4.108605 -5.564090 -24.055696 -33.022216 0.000024 -120.727350 0.000032 -0.154475 -11.263558 9.220875 4.891682 7.994774 1.884011 10.475091 36.544350 -16.206447 18.107187 67.043218 3.186301 0.000000 0.000002 -0.000001 7.775677 6.956315 -86.152694 10.250108 6.003563 -119.372077 9.029914 6.538644 -108.236423 0.000000 0.000000 0.000001 6.554755 6.873496 -87.274313 9.404161 6.404066 -111.556004 9.208626 6.477426 -109.813063 -0.000000 -0.000001 -0.000000 3.127858 6.869487 -89.819631 9.007623 6.545901 -108.040745 8.561883 6.673738 -104.169933 -0.000000 -0.000000 0.000000 1.160378 7.315410 -94.148400 8.017691 2.700474 -99.510699 10.792528 5.665878 -124.703955 -0.000000 -0.000000 -0.000001 1.631314 5.731312 -0.441811 -42.489558 15.679936 68.574874 0.000005 124.726522 0.000010 -16.848494 23.126985 -17.051217 2.101976 -10.083015 3.633757 25.660795 -30.716689 6.844860 36.126301 -53.497853 18.680847 -0.000000 0.000003 0.000003 9.556172 -7.137703 86.157932 10.350207 -6.061987 119.375560 9.118080 -6.602323 108.238862 -0.000000 -0.000001 -0.000001 6.610155 -6.940048 87.289428 9.494166 -6.467127 111.542604 9.295809 -6.532965 109.815338 -0.000001 -0.000001 0.000002 1.946419 -7.142804 92.181148 8.379087 -6.800016 101.912344 8.643645 -6.731595 104.171655 -0.000000 -0.000001 0.000002 -2.850690 -7.674969 94.127493 8.100970 -6.852419 99.572663 10.897913 -5.720984 124.707780 0.000001 0.000000 0.000005 -36.801609 1.650369 13.929011 33.867411 2.661901 -0.064319 2.210511 0.500148 -11.099810 -0.000013 -0.000002 0.000003 0.000000 -0.000002 0.000000 0.422420 -13.898432 -14.150660 29.165249 4.150160 -0.914032 -31.703262 -5.022545 12.601609 -0.640526 -0.000000 -0.000003 -0.000000 -0.000000 0.000000 
2.365763 85.379463 1.776441 4.479313 -53.537919 3.858158 7.622726 16.730055 -6.419383 2.681603 6.577202 -1.767486 2.626809 6.597574 -1.771281 5.256195 0.492902 -1.172618 10.072158 6.057837 -5.524369 0.000002 0.000000 -0.000000 0.094936 4.231429 -2.849122 -8.571751 -21.627010 -23.815389 0.000005 -113.276065 -0.000005 -0.254546 -5.944629 8.472898 4.891680 7.994780 1.884008 10.475091 36.544347 -16.206441 18.107193 67.043211 3.186290 0.000001 0.000001 0.000001 7.775675 6.956315 -86.152694 10.250112 6.003565 -119.372077 9.029914 6.538647 -108.236423 0.000000 0.000000 -0.000002 6.554755 6.873496 -87.274306 9.404165 6.404066 -111.556011 9.208624 6.477423 -109.813063 0.000000 -0.000000 0.000001 3.127856 6.869485 -89.819631 9.007624 6.545903 -108.040738 8.561885 6.673738 -104.169927 -0.000001 -0.000000 0.000000 1.160376 7.315409 -94.148400 8.017692 2.700470 -99.510699 10.792526 5.665875 -124.703955 -0.000000 0.000000 0.000002 1.555345 5.419613 -0.984354 -43.877145 23.176295 69.704068 -0.000005 123.292223 0.000002 -15.607612 22.528954 -21.953657 2.101976 -10.083016 3.633756 25.660795 -30.716689 6.844857 36.126308 -53.497853 18.680844 0.000004 0.000003 0.000002 9.556172 -7.137705 86.157932 10.350207 -6.061988 119.375560 9.118080 -6.602323 108.238868 0.000001 -0.000001 -0.000004 6.610155 -6.940050 87.289428 9.494165 -6.467128 111.542604 9.295807 -6.532966 109.815338 0.000000 -0.000001 -0.000002 1.946419 -7.142806 92.181155 8.379090 -6.800016 101.912337 8.643643 -6.731595 104.171648 0.000001 -0.000000 0.000001 -2.850690 -7.674970 94.127493 8.100969 -6.852418 99.572663 10.897919 -5.720982 124.707780 -0.000000 -0.000000 0.000002 -33.410734 1.944879 18.836545 34.088661 7.378949 -2.048312 0.367985 1.669705 -13.473528 0.000000 0.000005 -0.000003 0.000000 0.000000 -0.000000 -4.552346 -10.376697 -13.410038 30.423394 8.113043 -3.601901 -29.366907 -4.158702 11.994531 -0.577570 0.000002 -0.000000 -0.000000 0.000005 0.000000 
